<svg width="20" height="20" viewBox="0 0 20 20" fill="none" xmlns="http://www.w3.org/2000/svg">
<path d="M14.0335 9.99952L19.1642 4.86805C20.2786 3.75351 20.2786 1.95045 19.1642 0.835909C18.0498 -0.278636 16.2432 -0.278636 15.1288 0.835909L9.9981 5.96358L4.87116 0.835909C3.75677 -0.278636 1.95018 -0.278636 0.83579 0.835909C-0.278597 1.95045 -0.278597 3.75351 0.83579 4.86805L5.96653 9.99952L0.83579 15.131C-0.278597 16.2455 -0.278597 18.0486 0.83579 19.1631C1.39488 19.7223 2.12513 20 2.85538 20C3.58182 20 4.31207 19.7223 4.87116 19.1631L9.9981 14.0355L15.1288 19.1631C15.6879 19.7223 16.4144 20 17.1446 20C17.8749 20 18.6051 19.7223 19.1642 19.1631C20.2786 18.0486 20.2786 16.2455 19.1642 15.131L14.0335 9.99952Z" fill="#7E7E7E"/>
</svg>
