<svg width="31" height="31" viewBox="0 0 31 31" fill="none" xmlns="http://www.w3.org/2000/svg">
<path d="M18.8403 21.3355L11.3157 21.3125C10.8449 21.3109 10.4619 21.7038 10.4619 22.1887V29.6521C10.4619 30.0713 10.6694 30.4626 11.0125 30.6895C11.2088 30.8193 11.4338 30.8851 11.6588 30.8851C11.828 30.8851 11.9972 30.8489 12.1567 30.7749L18.9871 27.5676C19.4148 27.3654 19.6893 26.9282 19.6893 26.4448V22.2117C19.6893 21.7301 19.3095 21.3372 18.8403 21.3355Z" fill="#2D2D2D"/>
<path d="M27.7013 0H3.29869C1.47619 0 0 1.52228 0 3.39964V5.82443C0 6.68749 0.31758 7.51932 0.890502 8.14894L10.1562 18.3396C10.3317 18.532 10.5759 18.6421 10.8328 18.6421L19.2751 18.6684C19.5192 18.6701 19.7554 18.5714 19.9294 18.3939L30.0121 8.19497C30.6441 7.55713 31 6.68256 31 5.77182V3.39799C31 1.52063 29.5238 0 27.7013 0" fill="#2D2D2D"/>
</svg>
