<svg width="146" height="41" viewBox="0 0 146 41" fill="none" xmlns="http://www.w3.org/2000/svg">
<path d="M46.3691 8.93255V20.7249H50.6482V8.80688C50.6482 7.67934 51.5668 6.76549 52.7003 6.76549H58.802V2.50854H52.8267C49.26 2.50854 46.3691 5.38457 46.3691 8.93255Z" fill="#005AAA"/>
<path d="M74.1649 2.50854L69.8916 10.6189L65.1677 2.50854H60.2261L67.5346 15.0666L67.0765 15.883C66.8417 16.3277 66.3822 16.6035 65.8786 16.6035H62.8528V20.8604H65.8786C67.9752 20.8604 69.885 19.714 70.8628 17.8681L79.0252 2.50854H74.1649Z" fill="#005AAA"/>
<path d="M83.3769 13.1433L86.0159 8.12682C86.4107 7.29954 87.2607 6.76522 88.1817 6.76522H89.4558C89.753 6.76522 89.9939 7.00502 89.9939 7.30059V13.1433H83.3769ZM91.0442 2.50879H88.1817C85.6188 2.50879 83.2514 3.99606 82.1884 6.22619L74.5562 20.7329H79.3842L81.1377 17.4002H89.9939V20.7329H94.273V5.72053C94.273 3.94652 92.8275 2.50879 91.0442 2.50879Z" fill="#005AAA"/>
<path d="M111.603 2.50854H101.914C100.131 2.50854 98.6855 3.9468 98.6855 5.72029V20.6926H102.965V7.29669C102.965 7.00321 103.204 6.76549 103.498 6.76549H110.019C110.314 6.76549 110.553 7.00321 110.553 7.29669V20.6847H114.832V5.72029C114.832 3.9468 113.386 2.50854 111.603 2.50854Z" fill="#005AAA"/>
<path d="M17.4389 13.1694C12.1951 13.2324 0 13.8475 0 18.1828C0 22.8408 14.1484 23.2033 18.485 23.2033C22.8215 23.2033 36.97 22.8408 36.97 18.1828C36.97 15.9688 34.0892 14.9994 31.9222 14.4625C29.7357 13.9216 26.8613 13.5299 23.5974 13.3237C23.6715 14.3904 23.7219 15.4934 23.7457 16.6201C28.6032 16.9498 31.4988 17.6621 32.8316 18.1889C30.8883 18.9562 25.9667 19.9215 18.485 19.9215C10.9709 19.9215 6.04557 18.9496 4.11767 18.1809C5.94171 17.4448 10.4436 16.5365 17.4823 16.4502C17.9434 16.4447 18.3742 16.2687 18.6959 15.9552C19.0176 15.6416 19.1914 15.2272 19.185 14.7887C19.1734 13.8959 18.4002 13.1694 17.4389 13.1694Z" fill="url(#paint0_linear_14_149)"/>
<path d="M13.1587 18.1862C13.1587 22.4528 13.5202 36.3729 18.1728 36.3729C20.3848 36.3729 21.3526 33.5396 21.8878 31.4092C22.421 29.2908 22.8218 26.3913 23.0258 23.2202C21.8092 23.3 20.6803 23.3412 19.7347 23.361C19.4049 28.1417 18.6929 30.9895 18.1673 32.3013C17.4009 30.3894 16.4362 25.5462 16.4362 18.1862C16.4362 10.8127 17.4029 5.97047 18.1703 4.06376C18.9069 5.91261 19.8485 10.5332 19.907 17.5193C19.9145 18.4463 20.6496 19.2019 21.56 19.2019C22.4628 19.193 23.1919 18.4255 23.1844 17.4896C23.1481 13.1156 22.7675 9.01389 22.1139 5.93923C21.2519 1.88696 19.9996 0 18.1728 0C13.5202 0 13.1587 13.9197 13.1587 18.1862Z" fill="url(#paint1_linear_14_149)"/>
<path d="M29.4268 29.4388H31.7628L31.2348 32.6548H32.3388L34.4188 29.4388H36.8668L35.0268 32.2868C34.7921 32.6388 34.5681 32.8948 34.3548 33.0548C34.1415 33.2148 33.8641 33.3268 33.5228 33.3908L33.5068 33.5028C33.7628 33.5668 33.9761 33.6842 34.1468 33.8548C34.3175 34.0255 34.4775 34.3135 34.6268 34.7188L35.0588 35.8708H35.9388L35.6348 37.6948H34.6908C34.2108 37.6948 33.8215 37.5988 33.5228 37.4068C33.2348 37.2042 33.0055 36.8788 32.8348 36.4308L32.0668 34.3988H30.9308L30.3868 37.6948H28.0508L29.4268 29.4388ZM42.9566 35.7268H42.8766C42.5672 36.3988 42.2046 36.9268 41.7886 37.3108C41.3832 37.6948 40.8499 37.8868 40.1886 37.8868C39.7832 37.8868 39.4366 37.8228 39.1486 37.6948C38.8712 37.5668 38.6419 37.3962 38.4606 37.1828C38.2792 36.9588 38.1459 36.7028 38.0606 36.4148C37.9752 36.1268 37.9326 35.8228 37.9326 35.5028C37.9326 35.2682 37.9432 35.0282 37.9646 34.7828C37.9966 34.5375 38.0446 34.2228 38.1086 33.8388L38.8446 29.4388H41.1806L40.3966 34.1108C40.3752 34.2602 40.3486 34.4148 40.3166 34.5748C40.2952 34.7348 40.2846 34.9162 40.2846 35.1188C40.2846 35.2255 40.3006 35.3375 40.3326 35.4548C40.3646 35.5722 40.4179 35.6788 40.4926 35.7748C40.5672 35.8708 40.6632 35.9508 40.7806 36.0148C40.9086 36.0682 41.0632 36.0948 41.2446 36.0948C41.5219 36.0948 41.7619 36.0308 41.9646 35.9028C42.1672 35.7748 42.3592 35.5882 42.5406 35.3428C42.6579 35.1828 42.7966 34.9642 42.9566 34.6868C43.1272 34.3988 43.2392 34.0842 43.2926 33.7428L44.0126 29.4388H46.3486L44.9726 37.6948H42.6366L42.9566 35.7268ZM50.9983 37.8868C49.8783 37.8868 49.0143 37.5722 48.4063 36.9428C47.7983 36.3028 47.4943 35.4335 47.4943 34.3348C47.4943 33.7802 47.553 33.1668 47.6703 32.4948C47.7876 31.8228 47.953 31.1615 48.1663 30.5108C48.3903 29.8495 48.6463 29.2362 48.9343 28.6708C49.233 28.0948 49.5583 27.6308 49.9103 27.2788C50.1556 27.0335 50.417 26.8202 50.6943 26.6388C50.9716 26.4468 51.281 26.2868 51.6223 26.1588C51.9636 26.0308 52.3423 25.9348 52.7583 25.8708C53.185 25.7962 53.665 25.7482 54.1983 25.7268L56.3903 25.6628L55.9583 27.7748L53.8623 27.8388C53.265 27.8602 52.7956 27.9402 52.4543 28.0788C52.113 28.2068 51.8303 28.3828 51.6063 28.6068C51.361 28.8522 51.1263 29.1988 50.9023 29.6468C50.689 30.0842 50.5023 30.6175 50.3423 31.2468H50.4543C50.7423 30.7135 51.0783 30.3188 51.4623 30.0628C51.857 29.7962 52.3316 29.6628 52.8863 29.6628C53.2703 29.6628 53.6276 29.7375 53.9583 29.8868C54.2996 30.0255 54.593 30.2335 54.8383 30.5108C55.0836 30.7775 55.2756 31.1028 55.4143 31.4868C55.553 31.8708 55.6223 32.3082 55.6223 32.7988C55.6223 33.5882 55.5103 34.2975 55.2863 34.9268C55.0623 35.5562 54.7476 36.0895 54.3423 36.5268C53.937 36.9642 53.4463 37.3002 52.8703 37.5348C52.305 37.7695 51.681 37.8868 50.9983 37.8868ZM51.1743 36.1428C51.6863 36.1428 52.097 35.9882 52.4063 35.6788C52.7263 35.3695 52.945 34.9268 53.0623 34.3508L53.2223 33.5188C53.2436 33.4228 53.2596 33.3162 53.2703 33.1988C53.2916 33.0708 53.3023 32.9588 53.3023 32.8628C53.3023 32.3722 53.169 32.0095 52.9023 31.7748C52.6463 31.5295 52.305 31.4068 51.8783 31.4068C51.3343 31.4068 50.9076 31.5615 50.5983 31.8708C50.289 32.1695 50.0863 32.6015 49.9903 33.1668L49.8463 34.0308C49.825 34.1268 49.8036 34.2388 49.7823 34.3668C49.7716 34.4842 49.7663 34.5908 49.7663 34.6868C49.7663 35.1775 49.889 35.5455 50.1343 35.7908C50.3796 36.0255 50.7263 36.1428 51.1743 36.1428ZM60.8481 37.8868C59.6214 37.8868 58.7147 37.5775 58.1281 36.9588C57.5414 36.3295 57.2481 35.4655 57.2481 34.3668C57.2481 33.5988 57.3654 32.9002 57.6001 32.2708C57.8347 31.6415 58.1601 31.1028 58.5761 30.6548C59.0027 30.2068 59.5147 29.8602 60.1121 29.6148C60.7094 29.3695 61.3761 29.2468 62.1121 29.2468C62.5281 29.2468 62.9174 29.2948 63.2801 29.3908C63.6534 29.4868 63.9787 29.6308 64.2561 29.8228C64.5334 30.0042 64.7521 30.2388 64.9121 30.5268C65.0721 30.8042 65.1521 31.1348 65.1521 31.5188C65.1521 31.8495 65.0827 32.1802 64.9441 32.5108C64.8054 32.8415 64.5334 33.1455 64.1281 33.4228C63.7334 33.6895 63.1681 33.9188 62.4321 34.1108C61.7067 34.2922 60.7574 34.4042 59.5841 34.4468C59.5734 34.5108 59.5681 34.5642 59.5681 34.6068C59.5681 34.6388 59.5681 34.6762 59.5681 34.7188C59.5681 35.1668 59.6907 35.5082 59.9361 35.7428C60.1814 35.9775 60.5867 36.0948 61.1521 36.0948C61.3761 36.0948 61.5787 36.0735 61.7601 36.0308C61.9521 35.9882 62.1334 35.9135 62.3041 35.8068C62.4854 35.6895 62.6614 35.5455 62.8321 35.3748C63.0134 35.1935 63.2107 34.9642 63.4241 34.6868L64.8801 35.6308C64.6667 35.9402 64.4321 36.2335 64.1761 36.5108C63.9307 36.7775 63.6481 37.0175 63.3281 37.2308C63.0081 37.4335 62.6454 37.5935 62.2401 37.7108C61.8347 37.8282 61.3707 37.8868 60.8481 37.8868ZM61.8721 30.8948C61.3601 30.8948 60.9227 31.0495 60.5601 31.3588C60.1974 31.6575 59.9414 32.1642 59.7921 32.8788L59.7441 33.1028C60.4801 33.0602 61.0561 32.9908 61.4721 32.8948C61.8987 32.7988 62.2134 32.6868 62.4161 32.5588C62.6294 32.4308 62.7627 32.2922 62.8161 32.1428C62.8694 31.9935 62.8961 31.8548 62.8961 31.7268C62.8961 31.1722 62.5547 30.8948 61.8721 30.8948ZM67.6578 29.4388H69.9938L69.6738 31.4068H69.7538C69.9138 31.0868 70.0791 30.7988 70.2498 30.5428C70.4311 30.2762 70.6285 30.0468 70.8418 29.8548C71.0658 29.6628 71.3111 29.5135 71.5778 29.4068C71.8551 29.3002 72.1698 29.2468 72.5218 29.2468C72.9591 29.2468 73.3271 29.3215 73.6258 29.4708C73.9351 29.6202 74.1858 29.8388 74.3778 30.1268C74.5698 30.4042 74.7085 30.7402 74.7938 31.1348C74.8898 31.5295 74.9378 31.9668 74.9378 32.4468C74.9378 33.2682 74.8471 34.0148 74.6658 34.6868C74.4845 35.3482 74.2285 35.9188 73.8978 36.3988C73.5671 36.8682 73.1671 37.2362 72.6978 37.5028C72.2391 37.7588 71.7218 37.8868 71.1458 37.8868C70.4951 37.8868 69.9991 37.7375 69.6578 37.4388C69.3271 37.1295 69.1031 36.7028 68.9858 36.1588H68.8738L68.0738 40.8948H65.7378L67.6578 29.4388ZM70.3938 36.0788C70.9698 36.0788 71.4125 35.9135 71.7218 35.5828C72.0311 35.2415 72.2391 34.7562 72.3458 34.1268L72.5058 33.1668C72.5271 33.0708 72.5431 32.9642 72.5538 32.8468C72.5645 32.7188 72.5698 32.5855 72.5698 32.4468C72.5591 32.0522 72.4738 31.7215 72.3138 31.4548C72.1645 31.1882 71.8871 31.0548 71.4818 31.0548C71.1938 31.0548 70.9378 31.1242 70.7138 31.2628C70.4898 31.4015 70.2818 31.5935 70.0898 31.8388C69.9618 31.9882 69.8178 32.2015 69.6578 32.4788C69.4978 32.7455 69.3911 33.0495 69.3378 33.3908L69.1138 34.7188C69.0391 35.1562 69.1031 35.4922 69.3058 35.7268C69.5191 35.9615 69.8818 36.0788 70.3938 36.0788ZM75.9396 37.6948L77.3156 29.4388H79.6516L79.3316 31.4068H79.4116C79.7209 30.7348 80.0782 30.2068 80.4836 29.8228C80.8996 29.4388 81.4382 29.2468 82.0996 29.2468C82.5049 29.2468 82.8462 29.3108 83.1236 29.4388C83.4116 29.5668 83.6462 29.7428 83.8276 29.9668C84.0089 30.1802 84.1422 30.4308 84.2276 30.7188C84.3129 31.0068 84.3556 31.3108 84.3556 31.6308C84.3556 31.8655 84.3396 32.1055 84.3076 32.3508C84.2862 32.5962 84.2436 32.9108 84.1796 33.2948L83.4436 37.6948H81.1076L81.8916 33.0068C81.9129 32.8575 81.9342 32.7082 81.9556 32.5588C81.9876 32.3988 82.0036 32.2175 82.0036 32.0148C82.0036 31.9082 81.9876 31.7962 81.9556 31.6788C81.9236 31.5615 81.8702 31.4548 81.7956 31.3588C81.7209 31.2628 81.6196 31.1882 81.4916 31.1348C81.3742 31.0708 81.2249 31.0388 81.0436 31.0388C80.7662 31.0388 80.5262 31.1028 80.3236 31.2308C80.1209 31.3588 79.9289 31.5455 79.7476 31.7908C79.6302 31.9508 79.4862 32.1748 79.3156 32.4628C79.1556 32.7402 79.0489 33.0495 78.9956 33.3908L78.2756 37.6948H75.9396ZM89.3733 37.8868C88.2426 37.8868 87.368 37.5722 86.7493 36.9428C86.1306 36.3028 85.8213 35.4335 85.8213 34.3348C85.8213 33.5455 85.9333 32.8362 86.1573 32.2068C86.392 31.5775 86.712 31.0442 87.1173 30.6068C87.5333 30.1695 88.024 29.8335 88.5893 29.5988C89.1653 29.3642 89.8 29.2468 90.4933 29.2468C91.624 29.2468 92.4986 29.5668 93.1173 30.2068C93.736 30.8362 94.0453 31.7002 94.0453 32.7988C94.0453 33.5882 93.928 34.2975 93.6933 34.9268C93.4693 35.5562 93.1493 36.0895 92.7333 36.5268C92.328 36.9642 91.8373 37.3002 91.2613 37.5348C90.696 37.7695 90.0666 37.8868 89.3733 37.8868ZM89.5493 36.1428C90.0613 36.1428 90.4773 35.9882 90.7973 35.6788C91.128 35.3695 91.3413 34.9268 91.4373 34.3508L91.6453 33.1028C91.6666 33.0068 91.6826 32.9002 91.6933 32.7828C91.7146 32.6548 91.7253 32.5428 91.7253 32.4468C91.7253 31.9562 91.5973 31.5935 91.3413 31.3588C91.096 31.1135 90.7546 30.9908 90.3173 30.9908C89.8053 30.9908 89.384 31.1455 89.0533 31.4548C88.7333 31.7642 88.5253 32.2068 88.4293 32.7828L88.2213 34.0308C88.2 34.1268 88.1786 34.2388 88.1573 34.3668C88.1466 34.4842 88.1413 34.5908 88.1413 34.6868C88.1413 35.1775 88.264 35.5455 88.5093 35.7908C88.7653 36.0255 89.112 36.1428 89.5493 36.1428ZM94.5511 35.8708H95.7191C95.8897 35.6682 96.0444 35.4548 96.1831 35.2308C96.3217 34.9962 96.4444 34.7348 96.5511 34.4468C96.6684 34.1482 96.7697 33.8228 96.8551 33.4708C96.9404 33.1082 97.0204 32.6975 97.0951 32.2388L97.5591 29.4388H103.703L102.327 37.6948H99.9911L101.079 31.2148H99.4151L99.2231 32.3348C99.1057 32.9962 98.9884 33.5668 98.8711 34.0468C98.7537 34.5268 98.6257 34.9428 98.4871 35.2948C98.3591 35.6362 98.2151 35.9295 98.0551 36.1748C97.8951 36.4095 97.7191 36.6228 97.5271 36.8148C97.2071 37.1348 96.8444 37.3802 96.4391 37.5508C96.0444 37.7108 95.5591 37.7908 94.9831 37.7908H94.2311L94.5511 35.8708ZM110.113 35.7268H110.033C109.723 36.3988 109.361 36.9268 108.945 37.3108C108.539 37.6948 108.006 37.8868 107.345 37.8868C106.939 37.8868 106.593 37.8228 106.305 37.6948C106.027 37.5668 105.798 37.3962 105.617 37.1828C105.435 36.9588 105.302 36.7028 105.217 36.4148C105.131 36.1268 105.089 35.8228 105.089 35.5028C105.089 35.2682 105.099 35.0282 105.121 34.7828C105.153 34.5375 105.201 34.2228 105.265 33.8388L106.001 29.4388H108.337L107.553 34.1108C107.531 34.2602 107.505 34.4148 107.473 34.5748C107.451 34.7348 107.441 34.9162 107.441 35.1188C107.441 35.2255 107.457 35.3375 107.489 35.4548C107.521 35.5722 107.574 35.6788 107.649 35.7748C107.723 35.8708 107.819 35.9508 107.937 36.0148C108.065 36.0682 108.219 36.0948 108.401 36.0948C108.678 36.0948 108.918 36.0308 109.121 35.9028C109.323 35.7748 109.515 35.5882 109.697 35.3428C109.814 35.1828 109.953 34.9642 110.113 34.6868C110.283 34.3988 110.395 34.0842 110.449 33.7428L111.169 29.4388H113.505L112.129 37.6948H109.793L110.113 35.7268ZM117.947 37.8868C116.848 37.8868 116.021 37.6895 115.467 37.2948C114.912 36.8895 114.635 36.3082 114.635 35.5508C114.635 34.8682 114.864 34.2762 115.323 33.7748C115.781 33.2735 116.523 32.9375 117.547 32.7668L118.763 32.5588C119.307 32.4628 119.675 32.3455 119.867 32.2068C120.059 32.0575 120.155 31.8708 120.155 31.6468C120.155 31.2095 119.808 30.9908 119.115 30.9908C118.635 30.9908 118.208 31.0762 117.835 31.2468C117.461 31.4175 117.136 31.6255 116.859 31.8708L115.659 30.6388C116.117 30.2335 116.64 29.9028 117.227 29.6468C117.824 29.3802 118.549 29.2468 119.403 29.2468C120.373 29.2468 121.125 29.4495 121.659 29.8548C122.192 30.2495 122.459 30.8148 122.459 31.5508C122.459 32.2122 122.229 32.7935 121.771 33.2948C121.312 33.7962 120.571 34.1322 119.547 34.3028L118.331 34.5108C117.755 34.6068 117.376 34.7348 117.195 34.8948C117.024 35.0442 116.939 35.2308 116.939 35.4548C116.939 35.6895 117.035 35.8655 117.227 35.9828C117.419 36.0895 117.755 36.1428 118.235 36.1428C118.683 36.1428 119.125 36.0682 119.563 35.9188C120 35.7588 120.363 35.5402 120.651 35.2628L121.851 36.4948C121.403 36.9002 120.853 37.2362 120.203 37.5028C119.563 37.7588 118.811 37.8868 117.947 37.8868ZM127.748 37.8868C126.618 37.8868 125.743 37.5722 125.124 36.9428C124.506 36.3028 124.196 35.4335 124.196 34.3348C124.196 33.5455 124.308 32.8362 124.532 32.2068C124.767 31.5775 125.087 31.0442 125.492 30.6068C125.908 30.1695 126.399 29.8335 126.964 29.5988C127.54 29.3642 128.175 29.2468 128.868 29.2468C129.999 29.2468 130.874 29.5668 131.492 30.2068C132.111 30.8362 132.42 31.7002 132.42 32.7988C132.42 33.5882 132.303 34.2975 132.068 34.9268C131.844 35.5562 131.524 36.0895 131.108 36.5268C130.703 36.9642 130.212 37.3002 129.636 37.5348C129.071 37.7695 128.442 37.8868 127.748 37.8868ZM127.924 36.1428C128.436 36.1428 128.852 35.9882 129.172 35.6788C129.503 35.3695 129.716 34.9268 129.812 34.3508L130.02 33.1028C130.042 33.0068 130.058 32.9002 130.068 32.7828C130.09 32.6548 130.1 32.5428 130.1 32.4468C130.1 31.9562 129.972 31.5935 129.716 31.3588C129.471 31.1135 129.13 30.9908 128.692 30.9908C128.18 30.9908 127.759 31.1455 127.428 31.4548C127.108 31.7642 126.9 32.2068 126.804 32.7828L126.596 34.0308C126.575 34.1268 126.554 34.2388 126.532 34.3668C126.522 34.4842 126.516 34.5908 126.516 34.6868C126.516 35.1775 126.639 35.5455 126.884 35.7908C127.14 36.0255 127.487 36.1428 127.924 36.1428ZM134.846 29.4388H137.182L136.654 32.6388H139.454L139.982 29.4388H142.318L140.942 37.6948H138.606L139.15 34.4148H136.35L135.806 37.6948H133.47L134.846 29.4388Z" fill="#005AAA"/>
<defs>
<linearGradient id="paint0_linear_14_149" x1="9.57275e-05" y1="18.1862" x2="36.9701" y2="18.1862" gradientUnits="userSpaceOnUse">
<stop stop-color="#45C3F3"/>
<stop offset="0.5" stop-color="#1671C2"/>
<stop offset="0.959876" stop-color="#2056AE"/>
<stop offset="1" stop-color="#2056AE"/>
</linearGradient>
<linearGradient id="paint1_linear_14_149" x1="18.1716" y1="36.3729" x2="18.1716" y2="-0.000379403" gradientUnits="userSpaceOnUse">
<stop stop-color="#2056AE"/>
<stop offset="0.25" stop-color="#2056AE"/>
<stop offset="0.280093" stop-color="#2056AE"/>
<stop offset="0.625" stop-color="#A32B9B"/>
<stop offset="1" stop-color="#ED1443"/>
</linearGradient>
</defs>
</svg>
