<svg width="26" height="31" viewBox="0 0 26 31" fill="none" xmlns="http://www.w3.org/2000/svg">
<path fill-rule="evenodd" clip-rule="evenodd" d="M16.5335 22.0073H8.29586C7.67501 22.0073 7.16016 21.4873 7.16016 20.8603C7.16016 20.2332 7.67501 19.7285 8.29586 19.7285H16.5335C17.1543 19.7285 17.6692 20.2332 17.6692 20.8603C17.6692 21.4873 17.1543 22.0073 16.5335 22.0073M8.29586 12.0816H13.4141C14.0349 12.0816 14.5498 12.6016 14.5498 13.2287C14.5498 13.8558 14.0349 14.3605 13.4141 14.3605H8.29586C7.67501 14.3605 7.16016 13.8558 7.16016 13.2287C7.16016 12.6016 7.67501 12.0816 8.29586 12.0816M25.3186 10.7365C24.6674 10.7365 23.8952 10.7518 23.4257 10.7518C22.7292 10.7518 21.8206 10.7365 20.6698 10.7365C17.8987 10.7212 15.6121 8.42706 15.6121 5.62824V0.703529C15.6121 0.321176 15.3093 0 14.9155 0H6.82935C3.05882 0 0 3.10471 0 6.89765V23.3847C0 27.3612 3.21025 30.5882 7.14735 30.5882H19.2009C22.9563 30.5882 26 27.5141 26 23.7212V11.4247C26 11.0424 25.6971 10.7365 25.3186 10.7365" fill="#2D2D2D"/>
<path d="M20.6422 8.61636C21.6976 8.62706 23.1649 8.63165 24.4097 8.62706C25.0472 8.62553 25.3712 7.85624 24.9291 7.39283C23.33 5.71353 20.4695 2.70824 18.8326 0.98918C18.3799 0.513533 17.5879 0.840827 17.5879 1.5V5.53153C17.5879 7.22306 18.9674 8.61636 20.6422 8.61636" fill="#2D2D2D"/>
</svg>
