<svg width="26" height="31" viewBox="0 0 26 31" fill="none" xmlns="http://www.w3.org/2000/svg">
<path d="M9.8134 26.1276C9.14015 26.2864 8.41211 26.6576 8.41211 27.4679C8.45125 28.2393 8.89434 28.9232 9.50809 29.3559C10.3003 29.9896 11.2319 30.3899 12.2073 30.5341C12.7271 30.6071 13.2563 30.6055 13.7949 30.5341C14.7688 30.3899 15.7004 29.9896 16.4942 29.3576C17.1063 28.9232 17.5494 28.2393 17.5886 27.4679C17.5886 26.6576 16.8605 26.2864 16.1873 26.1276C15.3998 25.9575 10.6009 25.9575 9.8134 26.1276Z" fill="#2D2D2D"/>
<path d="M24.8828 14.7521C23.7656 13.4474 23.2579 12.3152 23.2579 10.3944V9.74281C23.2579 7.23818 22.6833 5.62696 21.4308 4.01419C19.5004 1.50956 16.2506 0 13.0692 0H12.9324C9.81783 0 6.66986 1.44024 4.70599 3.84167C3.38509 5.48832 2.74364 7.1704 2.74364 9.74281V10.3944C2.74364 12.3152 2.26939 13.4474 1.11722 14.7521C0.272084 15.7133 0 16.9471 0 18.2857C0 19.6227 0.440807 20.892 1.3209 21.9225C2.47156 23.1579 4.09646 23.9465 5.75633 24.0836C8.15949 24.3578 10.5626 24.461 13.0008 24.461C15.4374 24.461 17.842 24.2885 20.2452 24.0836C21.9035 23.9465 23.5284 23.1579 24.6806 21.9225C25.5607 20.892 26 19.6227 26 18.2857C26 16.9471 25.7294 15.7133 24.8828 14.7521" fill="#2D2D2D"/>
</svg>
