<svg width="50" height="50" viewBox="0 0 50 50" fill="none" xmlns="http://www.w3.org/2000/svg">
<path d="M45.7528 29.4271H29.6845V45.3561C29.6845 47.9209 27.5872 50 25 50C22.4128 50 20.3155 47.9209 20.3155 45.3561V29.4271H4.24716C1.83389 29.1794 0 27.1634 0 24.7583C0 22.3531 1.83389 20.3371 4.24716 20.0894H20.2651V4.21033C20.515 1.81799 22.5486 0 24.9748 0C27.401 0 29.4346 1.81799 29.6845 4.21033V20.0894H45.7528C48.1661 20.3371 50 22.3531 50 24.7583C50 27.1634 48.1661 29.1794 45.7528 29.4271V29.4271Z" fill="#200E32"/>
</svg>
