<svg width="31" height="31" viewBox="0 0 31 31" fill="none" xmlns="http://www.w3.org/2000/svg">
<path fill-rule="evenodd" clip-rule="evenodd" d="M24.4299 18.3707C24.4299 19.0124 23.9091 19.5332 23.2674 19.5332C22.6257 19.5332 22.1049 19.0124 22.1049 18.3707V16.6626H20.0434V18.3707C20.0434 19.0124 19.5226 19.5332 18.8809 19.5332C18.2392 19.5332 17.7184 19.0124 17.7184 18.3707V16.6626H14.4448C13.9426 18.318 12.4205 19.5332 10.6039 19.5332C8.38121 19.5332 6.57236 17.7244 6.57236 15.5001C6.57236 13.2774 8.38121 11.4686 10.6039 11.4686C12.4205 11.4686 13.9426 12.6838 14.4448 14.3376H23.2674C23.9091 14.3376 24.4299 14.8584 24.4299 15.5001V18.3707ZM22.2192 0H8.7823C3.52935 0 0 3.6859 0 9.17135V21.8302C0 27.3156 3.52935 31 8.7823 31H22.2177C27.4706 31 31 27.3156 31 21.8302V9.17135C31 3.6859 27.4706 0 22.2192 0V0Z" fill="#2D2D2D"/>
<path d="M10.6202 13.7952C9.67936 13.7952 8.91211 14.5609 8.91211 15.5033C8.91211 16.4441 9.67936 17.2098 10.6202 17.2098C11.5611 17.2098 12.3283 16.4441 12.3283 15.5033C12.3283 14.5609 11.5611 13.7952 10.6202 13.7952" fill="#2D2D2D"/>
</svg>
